<svg xmlns="http://www.w3.org/2000/svg" xmlns:xlink="http://www.w3.org/1999/xlink" width="90" height="83.42" viewBox="0 0 90 83.42">
  <defs>
    <linearGradient id="linear-gradient" x1="0.485" y1="1.197" x2="0.505" y2="0.063" gradientUnits="objectBoundingBox">
      <stop offset="0" stop-color="#fff" stop-opacity="0"/>
      <stop offset="0.054" stop-color="#f0ebf5" stop-opacity="0.016"/>
      <stop offset="0.247" stop-color="#c0a8d1" stop-opacity="0.063"/>
      <stop offset="0.422" stop-color="#9973b6" stop-opacity="0.11"/>
      <stop offset="0.573" stop-color="#7d4da2" stop-opacity="0.149"/>
      <stop offset="0.693" stop-color="#6c3695" stop-opacity="0.18"/>
      <stop offset="0.769" stop-color="#662d91" stop-opacity="0.2"/>
    </linearGradient>
  </defs>
  <path id="Path_495" data-name="Path 495" d="M151.991,321.384l-40.467-4.268a4.536,4.536,0,0,0-4.144,1.844L83.451,351.87a4.54,4.54,0,0,0-.475,4.506l16.537,37.179a4.522,4.522,0,0,0,3.669,2.662l40.467,4.268a4.536,4.536,0,0,0,4.144-1.844l23.93-32.911a4.54,4.54,0,0,0,.475-4.506L155.66,324.046A4.552,4.552,0,0,0,151.991,321.384Z" transform="translate(-82.586 -317.09)" opacity="0.55" fill="url(#linear-gradient)"/>
</svg>
