<svg xmlns="http://www.w3.org/2000/svg" xmlns:xlink="http://www.w3.org/1999/xlink" width="144.008" height="133.479" viewBox="0 0 144.008 133.479">
  <defs>
    <linearGradient id="linear-gradient" x1="0.485" y1="1.197" x2="0.505" y2="0.063" gradientUnits="objectBoundingBox">
      <stop offset="0" stop-color="#fff" stop-opacity="0"/>
      <stop offset="0.054" stop-color="#f0ebf5" stop-opacity="0.016"/>
      <stop offset="0.247" stop-color="#c0a8d1" stop-opacity="0.063"/>
      <stop offset="0.422" stop-color="#9973b6" stop-opacity="0.11"/>
      <stop offset="0.573" stop-color="#7d4da2" stop-opacity="0.149"/>
      <stop offset="0.693" stop-color="#6c3695" stop-opacity="0.18"/>
      <stop offset="0.769" stop-color="#662d91" stop-opacity="0.2"/>
    </linearGradient>
  </defs>
  <path id="Path_493" data-name="Path 493" d="M193.64,323.96l-64.75-6.83a7.258,7.258,0,0,0-6.63,2.95L83.97,372.74a7.265,7.265,0,0,0-.76,7.21l26.46,59.49a7.236,7.236,0,0,0,5.87,4.26l64.75,6.83a7.258,7.258,0,0,0,6.63-2.95l38.29-52.66a7.265,7.265,0,0,0,.76-7.21l-26.46-59.49A7.284,7.284,0,0,0,193.64,323.96Z" transform="translate(-82.586 -317.09)" opacity="0.55" fill="url(#linear-gradient)"/>
</svg>
