<svg xmlns="http://www.w3.org/2000/svg" xmlns:xlink="http://www.w3.org/1999/xlink" width="644.627" height="720" viewBox="0 0 644.627 720">
  <defs>
    <linearGradient id="linear-gradient" x1="0.837" y1="0.583" x2="-0.138" y2="0.435" gradientUnits="objectBoundingBox">
      <stop offset="0" stop-color="#fff"/>
      <stop offset="1" stop-color="#969696"/>
    </linearGradient>
  </defs>
  <g id="Layer_3" transform="translate(-388.021 -22.577)" opacity="0.07">
    <path id="Path_488" data-name="Path 488" d="M996.136,437.364c9.268,13.534,22.288,37.9,29.923,68.436a210.056,210.056,0,0,1,6.429,59.286,216.276,216.276,0,0,1-7.606,45.678,175.906,175.906,0,0,1-33.836,65.98C943,734.971,872.165,741.517,856.189,742.577H607.54c-18.08-1.089-86.546-7.4-144.184-63.376-63.611-61.743-67.907-139.124-68.436-155.38l-6.87-354.437A134.652,134.652,0,0,1,398.7,113.467s17.668-43.28,59.7-69.687c73.379-46.061,162.9-3.133,168.281-.441a117.114,117.114,0,0,0-52.151,25.7,122.65,122.65,0,0,0-33.218,47.605,124.679,124.679,0,0,0-8.224,39.308c-1.986,36.646-.942,167.281,3.825,344.845,1.986,26.318,9.886,83.766,50.5,106.332,19.036,10.563,38.249,9.474,47.208,9,57.727-3.192,143.743-3.972,257.5-3.678,2.692-7.929,12.313-39.338-2.9-72.261-15.3-33.071-49.724-54.726-88.826-56.447H670.151V358.571l173.989.265C856.277,360.1,950.826,371.09,996.136,437.364Z" transform="translate(0 0)" fill="url(#linear-gradient)"/>
    <path id="Path_489" data-name="Path 489" d="M615.4,320.568q82.684-.794,165.354-1.633a338.286,338.286,0,0,0-6.782-91.371c-5.561-25.995-15.476-69.775-49.047-113.335-7.988-10.357-14.123-18.33-24.538-27.054C661.992,54.914,591.157,33.6,543.92,68.551c-27.26,20.184-36.44,51.592-39.75,69.319,14.711,3.4,45.325,12.725,69.349,40.162,15.417,17.609,21.581,35.219,27.907,53.284A255.041,255.041,0,0,1,615.4,320.568Z" transform="translate(54.72 13.185)" fill="#3a3e47"/>
  </g>
</svg>
