<?xml version="1.0" encoding="utf-8"?>
<!-- Generator: Adobe Illustrator 24.3.0, SVG Export Plug-In . SVG Version: 6.00 Build 0)  -->
<svg version="1.1" id="Layer_1" xmlns="http://www.w3.org/2000/svg" xmlns:xlink="http://www.w3.org/1999/xlink" x="0px" y="0px"
	 viewBox="0 0 960 560" style="enable-background:new 0 0 960 560;" xml:space="preserve">
<style type="text/css">
	.st0{opacity:0.3;}
	.st1{fill:url(#SVGID_1_);}
	.st2{fill:#3A3E47;}
</style>
<g id="Layer_3" class="st0">
	<linearGradient id="SVGID_1_" gradientUnits="userSpaceOnUse" x1="754.9012" y1="307.9136" x2="327.6049" y2="235.2847">
		<stop  offset="0" style="stop-color:#FFFFFF"/>
		<stop  offset="1" style="stop-color:#969696"/>
	</linearGradient>
	<path class="st1" d="M801.39,304.53c6.3,9.2,15.15,25.76,20.34,46.52c5.09,20.32,4.55,36.22,4.37,40.3
		c-0.3,6.82-1.59,17.89-5.17,31.05c-3.2,11.77-9.58,28.59-23,44.85c-32.66,39.58-80.81,44.03-91.67,44.75H537.24
		c-12.29-0.74-58.83-5.03-98.01-43.08c-43.24-41.97-46.16-94.57-46.52-105.62l-4.67-240.93c-0.26-13.04,2.09-26.04,7.24-38.01
		c0,0,12.01-29.42,40.58-47.37c49.88-31.31,110.73-2.13,114.39-0.3c-7.12,1.49-21.59,5.55-35.45,17.47
		c-2.88,2.47-15.23,13.46-22.58,32.36c-4.59,11.83-5.35,21.93-5.59,26.72c-1.35,24.91-0.64,113.71,2.6,234.41
		c1.35,17.89,6.72,56.94,34.33,72.28c12.94,7.18,26,6.44,32.09,6.12c39.24-2.17,97.71-2.7,175.04-2.5
		c1.83-5.39,8.37-26.74-1.97-49.12c-10.4-22.48-33.8-37.2-60.38-38.37H579.8v-85.09l118.27,0.18
		C706.32,252.01,770.59,259.48,801.39,304.53z"/>
	<path class="st2" d="M579.78,234.1c37.47-0.36,74.93-0.74,112.4-1.11c1.57-26.02-1.45-47.37-4.61-62.11
		c-3.78-17.67-10.52-47.43-33.34-77.04c-5.43-7.04-9.6-12.46-16.68-18.39c-26.1-21.93-74.25-36.42-106.36-12.66
		c-18.53,13.72-24.77,35.07-27.02,47.12c10,2.31,30.81,8.65,47.14,27.3c10.48,11.97,14.67,23.94,18.97,36.22
		C574.75,186.2,580.26,206.96,579.78,234.1z"/>
</g>
</svg>
