<svg xmlns="http://www.w3.org/2000/svg" width="65.714" height="57.5" viewBox="0 0 65.714 57.5">
  <path id="quote-right" d="M6.161,89.5H22.589a6.162,6.162,0,0,0,6.161-6.161V66.911a6.162,6.162,0,0,0-6.161-6.161H12.321V52.536a8.222,8.222,0,0,1,8.214-8.214h1.027a3.073,3.073,0,0,0,3.08-3.08V35.08A3.073,3.073,0,0,0,21.563,32H20.536A20.53,20.53,0,0,0,0,52.536v30.8A6.162,6.162,0,0,0,6.161,89.5Zm36.964,0H59.554a6.162,6.162,0,0,0,6.161-6.161V66.911a6.162,6.162,0,0,0-6.161-6.161H49.286V52.536A8.222,8.222,0,0,1,57.5,44.321h1.027a3.073,3.073,0,0,0,3.08-3.08V35.08A3.073,3.073,0,0,0,58.527,32H57.5A20.53,20.53,0,0,0,36.964,52.536v30.8A6.162,6.162,0,0,0,43.125,89.5Z" transform="translate(0 -32)" fill="rgba(0,0,0,0.29)"/>
</svg>
