<svg xmlns="http://www.w3.org/2000/svg" width="65.714" height="57.5" viewBox="0 0 65.714 57.5">
  <path id="quote-right" d="M59.554,32H43.125a6.162,6.162,0,0,0-6.161,6.161V54.589a6.162,6.162,0,0,0,6.161,6.161H53.393v8.214a8.222,8.222,0,0,1-8.214,8.214H44.152a3.073,3.073,0,0,0-3.08,3.08V86.42a3.073,3.073,0,0,0,3.08,3.08h1.027A20.53,20.53,0,0,0,65.714,68.964v-30.8A6.162,6.162,0,0,0,59.554,32ZM22.589,32H6.161A6.162,6.162,0,0,0,0,38.161V54.589A6.162,6.162,0,0,0,6.161,60.75H16.429v8.214a8.222,8.222,0,0,1-8.214,8.214H7.187a3.073,3.073,0,0,0-3.08,3.08V86.42a3.073,3.073,0,0,0,3.08,3.08H8.214A20.53,20.53,0,0,0,28.75,68.964v-30.8A6.162,6.162,0,0,0,22.589,32Z" transform="translate(0 -32)" fill="rgba(0,0,0,0.29)"/>
</svg>
