<svg xmlns="http://www.w3.org/2000/svg" width="133.77" height="211.784" viewBox="0 0 133.77 211.784">
  <g id="logo" transform="translate(-54.356 -195.771)">
    <g id="Group_162" data-name="Group 162">
      <path id="Path_250" data-name="Path 250" d="M109.68,345.52c-.45-.23-1.02-.53-1.69-.91-.3-.17-.62-.37-.94-.57-.1-.06-.2-.13-.3-.19-.26-.17-.53-.35-.8-.54-.12-.09-.25-.17-.38-.26-.1-.07-.2-.15-.3-.23-.19-.14-.39-.3-.59-.45-.11-.08-.21-.17-.32-.26-.21-.18-.43-.36-.65-.55-.09-.08-.18-.16-.28-.24-.31-.28-.62-.57-.94-.88q-.345-.345-.69-.72c-.12-.13-.24-.24-.36-.37-.35-.39-.71-.79-1.06-1.22-.46-.56-.9-1.15-1.32-1.74-.11-.15-.21-.3-.31-.45-.28-.4-.54-.81-.8-1.22-.19-.31-.38-.61-.56-.92-.2-.35-.4-.69-.59-1.04-.17-.31-.34-.63-.5-.95-.2-.4-.4-.8-.59-1.2-.1-.2-.19-.4-.28-.61-.24-.54-.48-1.08-.7-1.63-.04-.09-.08-.18-.11-.27-.25-.63-.49-1.27-.71-1.91-.06-.18-.12-.37-.19-.55q-.24-.69-.45-1.38c-.07-.21-.13-.42-.19-.64-.13-.46-.26-.91-.38-1.37-.05-.18-.1-.36-.14-.53-.16-.62-.31-1.23-.44-1.83-.02-.08-.03-.16-.05-.25-.12-.53-.22-1.04-.32-1.55-.04-.19-.07-.38-.11-.57-.08-.41-.15-.81-.21-1.21-.03-.19-.06-.37-.09-.55-.07-.44-.14-.87-.2-1.3-.02-.11-.03-.22-.05-.33-.07-.53-.14-1.04-.19-1.53-.02-.13-.03-.26-.04-.39-.04-.36-.08-.72-.11-1.06-.01-.15-.03-.31-.04-.46-.03-.31-.05-.62-.08-.91-.01-.13-.02-.26-.03-.38-.03-.39-.05-.77-.08-1.11-.82-40.73-.95-70.42-.53-78.49a23.521,23.521,0,0,1,1.65-7.96,13.639,13.639,0,0,1,4.15-5.57,11.37,11.37,0,0,1,1.24-.84h0l-7.05,4.1a13.12,13.12,0,0,0-5.39,6.41,23.773,23.773,0,0,0-1.65,7.96c-.41,8.07-.29,37.76.53,78.49.02.35.05.72.08,1.11.01.12.02.25.03.38.02.29.05.59.08.91.01.15.03.3.04.46.03.34.07.7.11,1.07.01.13.03.25.04.38.06.49.12,1.01.19,1.53.01.11.03.22.05.33.06.42.12.86.2,1.3.03.18.06.37.09.55.07.4.14.8.21,1.21.04.19.07.38.11.57.1.51.21,1.03.32,1.55.02.08.03.16.05.25.14.6.29,1.22.44,1.83.05.17.09.35.14.53.12.45.25.91.38,1.37.06.21.13.42.19.64q.21.69.45,1.38c.06.18.12.37.19.55.22.64.46,1.27.71,1.91.04.09.08.18.11.27.22.54.45,1.09.7,1.63.09.2.19.4.28.6.11.23.21.47.33.7.08.17.18.33.26.5.16.32.33.63.5.95.19.35.39.7.59,1.04.18.31.37.62.56.92.1.15.18.31.28.47.17.25.34.5.52.75.1.15.21.31.31.46.38.54.78,1.07,1.2,1.58l.12.15c.35.43.71.84,1.06,1.22.12.13.24.24.35.37.23.25.47.5.7.72l.02.02c.31.3.62.59.92.86.09.08.19.16.28.24.22.19.44.38.65.55l.32.26c.2.16.39.31.59.45.1.08.2.15.3.23.05.04.11.08.16.12.08.05.14.09.22.15.27.19.54.37.8.54.1.06.2.13.3.19.33.21.65.4.94.57.67.39,1.24.68,1.69.91,9.94,5.1,24.13,13.08,42.5,23.69q3.975,2.295,8.22,4.76l7.05-4.1q-4.245-2.46-8.22-4.76C133.81,358.6,119.61,350.62,109.68,345.52Z" fill="#d8d8d8"/>
      <path id="Path_251" data-name="Path 251" d="M186.85,365.06a92.511,92.511,0,0,0-5.85-18.9c-.34-.78-.71-1.55-1.08-2.3-.04-.09-.08-.18-.12-.26s-.09-.16-.13-.24c-.56-1.11-1.14-2.2-1.75-3.27l-.24-.42q-.915-1.59-1.89-3.09c-.04-.06-.08-.13-.12-.2-.08-.12-.16-.23-.24-.35-.24-.36-.48-.72-.72-1.07-.16-.23-.31-.46-.47-.69-.26-.37-.51-.73-.77-1.09-.15-.2-.29-.4-.44-.6-.31-.42-.63-.84-.94-1.26-.1-.13-.19-.25-.29-.38-.41-.53-.83-1.06-1.24-1.57-.01-.02-.03-.04-.04-.06l-.12-.15c-.52-.63-1.03-1.25-1.55-1.85l-.33-.39c-.54-.63-1.09-1.24-1.63-1.83-.11-.12-.22-.23-.33-.35-.51-.55-1.02-1.09-1.52-1.61-.06-.06-.12-.13-.18-.19-.54-.56-1.08-1.1-1.61-1.62l-.17-.17c-.12-.11-.23-.22-.34-.33-.13-.13-.27-.26-.4-.39l-.67-.64c-.12-.11-.24-.23-.36-.34l-.79-.73c-.07-.06-.14-.13-.21-.19-.33-.3-.65-.59-.97-.87-.09-.08-.18-.16-.28-.24-.22-.2-.45-.39-.67-.58-.12-.1-.23-.2-.35-.3-.19-.16-.38-.32-.56-.48-.12-.1-.24-.2-.35-.3-.18-.15-.35-.29-.52-.44l-.33-.27c-.18-.15-.35-.29-.53-.43-.09-.07-.18-.15-.27-.22-.22-.18-.43-.34-.63-.51a1.063,1.063,0,0,1-.11-.09q-.36-.285-.69-.54c-.07-.06-.14-.11-.22-.17-.15-.11-.29-.22-.43-.33-.08-.06-.15-.11-.22-.17-.12-.09-.24-.18-.35-.26-.07-.05-.14-.1-.21-.16-.11-.08-.21-.16-.31-.23-.06-.04-.11-.08-.17-.12-.11-.08-.2-.15-.29-.21a.833.833,0,0,0-.12-.08c-.01-.01-.02-.01-.03-.02-.07-.05-.13-.09-.19-.14l-.13-.1c-.1-.07-.18-.13-.25-.18l-6.9-4,5.21-3.03a97.87,97.87,0,0,0-1.28-21.46,108.877,108.877,0,0,0-9.59-31.23c-.2-.42-.4-.83-.59-1.22a3.541,3.541,0,0,1-.16-.34c-.14-.29-.28-.57-.42-.85-.02-.03-.03-.07-.05-.1-.03-.05-.05-.11-.08-.16-.2-.4-.4-.79-.6-1.18-.06-.12-.13-.25-.19-.37-.24-.46-.49-.93-.75-1.39-.03-.05-.06-.11-.09-.16q-.345-.615-.72-1.26c-.08-.13-.15-.26-.23-.39-.29-.49-.6-.98-.93-1.49-.02-.04-.05-.07-.07-.11-.1-.16-.21-.32-.32-.48-.2-.3-.4-.6-.61-.91l-.42-.6c-.2-.28-.39-.56-.6-.84-.15-.21-.31-.42-.46-.62-.2-.27-.4-.54-.61-.82-.16-.21-.33-.42-.49-.63-.21-.27-.42-.53-.63-.8-.05-.07-.1-.13-.16-.2-.04-.05-.09-.1-.13-.15-.76-.94-1.56-1.86-2.37-2.77-.09-.1-.18-.19-.26-.29-.83-.92-1.69-1.81-2.57-2.67l-.12-.12a.942.942,0,0,1-.1-.1c-.48-.47-.96-.93-1.45-1.37-.06-.05-.11-.1-.17-.15-.43-.39-.87-.78-1.3-1.15-.16-.14-.33-.27-.49-.41-.34-.28-.67-.56-1.01-.83-.18-.14-.36-.29-.54-.43-.33-.26-.67-.51-1-.75-.12-.08-.23-.18-.35-.26a2.026,2.026,0,0,1-.18-.13c-.33-.23-.66-.45-.98-.67-.16-.11-.32-.22-.48-.32-.49-.31-.97-.61-1.46-.89s-1-.56-1.5-.81c-.16-.08-.32-.15-.48-.23-.33-.16-.67-.32-1-.46-.19-.08-.39-.15-.58-.22-.3-.12-.59-.24-.89-.34-.21-.07-.41-.12-.61-.18-.28-.08-.56-.17-.83-.24-.21-.05-.41-.08-.62-.13-.26-.05-.53-.11-.79-.15-.21-.03-.41-.04-.62-.06-.25-.02-.51-.05-.76-.06-.21-.01-.41.01-.61.01-.24.01-.48.01-.72.04-.2.02-.4.06-.6.09-.17.03-.34.04-.5.08-.13.03-.25.06-.37.09a8.6,8.6,0,0,0-2.01.84l-7.05,4.1a8.422,8.422,0,0,1,2.01-.84,8.547,8.547,0,0,1,.88-.17c.2-.03.39-.07.6-.09.24-.02.48-.03.72-.04.2-.01.4-.02.61-.01.25.01.5.03.76.06.21.02.41.03.62.06.26.04.53.09.79.15.21.04.41.07.62.13.27.07.55.15.83.24.2.06.41.11.61.18.29.1.59.22.89.34.19.08.39.14.58.22.33.14.67.3,1,.46.16.08.32.14.48.23q.75.375,1.5.81c.48.28.97.58,1.46.89.16.1.32.21.48.32.33.22.66.44.98.67.18.13.35.26.53.39.33.24.67.49,1,.75.18.14.36.28.55.43.34.27.67.54,1.01.83.16.14.33.27.49.41.44.37.87.76,1.3,1.15.06.05.11.1.17.15.49.45.97.91,1.45,1.37.07.07.14.15.22.22.88.86,1.73,1.76,2.57,2.67.09.1.18.19.26.29.82.91,1.61,1.83,2.37,2.77.09.12.19.23.29.35.21.26.42.53.62.79.17.21.34.43.5.64.21.27.41.54.61.81.16.21.31.42.46.63.2.28.4.56.59.84.14.2.29.4.42.6.2.3.4.59.59.89.13.2.27.4.4.6.33.51.64,1.01.93,1.49.08.13.15.26.23.38.25.42.49.84.72,1.25.03.06.07.11.1.17.26.46.5.93.75,1.39.06.12.13.24.19.36.2.39.4.78.6,1.18.04.09.09.18.13.27.14.28.28.56.42.85.05.11.11.22.16.34.19.4.39.8.59,1.22a108.968,108.968,0,0,1,9.59,31.23,100.064,100.064,0,0,1,1.36,19.37l-25.61-14.83-7.05,4.1,34.27,19.85c.07.05.16.11.25.18a1.132,1.132,0,0,1,.13.1c.07.05.14.1.22.16a.833.833,0,0,0,.12.08c.09.07.19.14.29.21.05.04.11.08.17.12.1.07.21.15.32.23.07.05.13.1.2.15l.36.27c.07.05.14.11.22.16.14.1.28.22.43.33.07.06.14.11.22.17q.33.255.69.54a1.063,1.063,0,0,0,.11.09c.21.16.42.33.64.51.08.07.17.14.26.21.18.14.36.29.54.44.1.09.21.17.32.26.18.15.35.29.53.45.11.1.23.19.34.29l.57.48c.11.1.23.2.34.3l.68.59.26.23c.32.28.64.58.97.88.06.06.13.12.19.17.27.25.54.49.81.75.12.11.23.22.35.33.23.21.45.43.68.65.13.13.26.25.39.38.17.17.34.34.51.5.53.52,1.07,1.06,1.61,1.62.06.06.13.13.19.2.5.52,1.01,1.06,1.52,1.61.11.12.22.23.32.35.54.59,1.09,1.2,1.63,1.83l.33.39c.52.61,1.04,1.22,1.56,1.86.05.07.11.13.16.2.42.52.83,1.04,1.25,1.57.1.12.19.25.29.38.32.41.63.83.94,1.26.15.2.29.4.43.6.26.36.52.72.78,1.09.16.23.31.45.47.68.24.35.48.71.72,1.07.12.18.24.37.36.55q.975,1.515,1.89,3.09l.24.42c.61,1.06,1.19,2.15,1.75,3.27.08.17.17.33.25.5.37.76.73,1.52,1.08,2.3a92.512,92.512,0,0,1,5.85,18.9,62.3,62.3,0,0,1,1.23,14.15,43.873,43.873,0,0,1-1.53,9.47c-.94,3.39-2.8,7.92-6.7,11.09a15.468,15.468,0,0,1-2.02,1.39l7.05-4.1a16.166,16.166,0,0,0,2.02-1.39c3.9-3.17,5.76-7.7,6.7-11.09a43.873,43.873,0,0,0,1.53-9.47A63.4,63.4,0,0,0,186.85,365.06Z" fill="#d8d8d8"/>
      <path id="Path_252" data-name="Path 252" d="M85.68,205.34c.21.13.41.27.61.4.5.33,1,.67,1.48,1.02.22.15.44.31.65.46s.4.29.59.44c.31.23.61.46.91.69.19.15.38.3.57.44.3.24.6.47.89.71.17.14.35.28.52.42.31.25.61.51.91.76.14.12.29.24.43.37.4.34.78.68,1.16,1.02.03.03.07.06.1.09.41.37.8.72,1.18,1.08.12.11.23.22.35.33.25.24.5.47.74.7.13.13.26.25.39.37.21.21.43.41.63.61.11.1.21.21.31.31l.59.59c.08.09.17.17.25.26.24.24.46.47.67.69l.05.05c.22.23.42.45.61.65.06.06.11.12.17.18.12.13.24.26.34.36a1.74,1.74,0,0,1,.13.15c.09.1.18.2.25.28a.647.647,0,0,1,.08.09c.08.09.15.17.19.21l7.05-4.1c-.04-.04-.1-.12-.19-.21a.647.647,0,0,0-.08-.09q-.1-.12-.24-.27c-.05-.05-.09-.1-.14-.16-.1-.11-.2-.22-.32-.35-.06-.07-.12-.13-.18-.2-.18-.2-.38-.41-.6-.64-.02-.02-.03-.04-.05-.05l-.67-.7c-.08-.08-.16-.17-.25-.25-.19-.19-.38-.39-.59-.59l-.31-.31-.24-.24c-.12-.12-.25-.25-.38-.37s-.26-.25-.39-.38c-.23-.23-.48-.46-.73-.69-.12-.11-.24-.22-.36-.34-.38-.35-.77-.71-1.18-1.07-.03-.03-.07-.06-.1-.09-.37-.33-.76-.67-1.15-1.01-.14-.12-.29-.25-.44-.37-.3-.25-.59-.5-.9-.75-.17-.14-.35-.28-.53-.43-.29-.24-.59-.47-.89-.71-.19-.15-.38-.3-.58-.45-.3-.23-.6-.46-.91-.69l-.59-.44c-.1-.07-.2-.15-.3-.22-.12-.08-.24-.16-.35-.24-.49-.34-.98-.68-1.48-1.02-.2-.13-.4-.27-.61-.4-.69-.44-1.38-.88-2.09-1.28-4.94-2.85-10.31-4.75-15.31-4.04-.4.06-.79.13-1.17.22a1.208,1.208,0,0,0-.18.05c-.14.03-.28.07-.42.11-.3.08-.59.17-.87.26-.14.05-.29.1-.43.15-.28.1-.55.22-.81.33a3.728,3.728,0,0,0-.35.16c-.36.17-.72.36-1.05.55l-7.05,4.1c.34-.2.69-.38,1.05-.55.11-.05.23-.1.35-.16q.39-.18.81-.33c.14-.05.28-.1.43-.15.28-.1.57-.18.87-.26.14-.04.28-.08.42-.11.44-.1.88-.2,1.35-.26,5-.72,10.38,1.19,15.31,4.04C84.3,204.46,85,204.89,85.68,205.34Z" fill="#d8d8d8"/>
    </g>
    <g id="Group_163" data-name="Group 163">
      <path id="Path_253" data-name="Path 253" d="M107.37,227.11c7.14,4.12,14.53,12.03,19.32,19.46a75.06,75.06,0,0,1,4.82,8.91,108.968,108.968,0,0,1,9.59,31.23,97.87,97.87,0,0,1,1.28,21.46q-16.275-9.225-32.57-18.44a82.866,82.866,0,0,0-2.69-21.79,64.034,64.034,0,0,0-5.46-15.23,57.589,57.589,0,0,0-13.64-16.98c.66-3.64,2.49-9.7,7.87-11.17C99.27,223.63,103.28,224.75,107.37,227.11Z" fill="#fff"/>
    </g>
    <g id="Group_164" data-name="Group 164">
      <path id="Path_254" data-name="Path 254" d="M83.6,204.05c9.36,5.4,17.14,14.21,17.84,15.01-2.06-.7-6.26-1.76-10.29-.12a12.454,12.454,0,0,0-6.57,7,23.773,23.773,0,0,0-1.65,7.96c-.41,8.07-.29,37.76.53,78.49.37,6.18,1.89,20.09,9.88,29.81a27.552,27.552,0,0,0,7.61,6.5c.67.39,1.24.68,1.69.91,9.94,5.1,24.13,13.08,42.5,23.69q3.975,2.295,8.22,4.76c.54-1.48,2.45-7.5-.52-16.68-2.99-9.22-9.76-18.05-17.46-22.88l-25.65-14.81.08-28.33,34.27,19.85c2.39,1.67,21,14.9,29.89,35.06a92.512,92.512,0,0,1,5.85,18.9,62.3,62.3,0,0,1,1.23,14.15,43.873,43.873,0,0,1-1.53,9.47c-.94,3.39-2.8,7.92-6.7,11.09-9.51,7.71-23.46,1.14-26.61-.44L97.23,375.16c-3.56-2.31-17.04-11.51-28.36-30.74-12.49-21.21-13.29-39.22-13.38-42.95l-1.13-81.01a25.706,25.706,0,0,1,2.14-11.44c.18-.39,3.51-7.79,11.81-8.98C73.28,199.3,78.66,201.2,83.6,204.05Z" fill="#fff"/>
    </g>
  </g>
</svg>
