<svg xmlns="http://www.w3.org/2000/svg" width="377.432" height="498.861" viewBox="0 0 377.432 498.861">
  <g id="blabs_banner_3d" data-name="blabs banner 3d" transform="translate(-32.78 -9.57)">
    <g id="browser">
      <g id="Group_158" data-name="Group 158">
        <path id="Path_243" data-name="Path 243" d="M85.08,55.31a5.2,5.2,0,0,1,2.37,4.11l-.06,19.79c0,1.51-1.07,2.12-2.39,1.36L49.32,59.97a5.2,5.2,0,0,1-2.37-4.11l.06-19.79c0-1.51,1.07-2.12,2.39-1.36Z" fill="#fff"/>
      </g>
      <g id="Group_159" data-name="Group 159">
        <path id="Path_244" data-name="Path 244" d="M271.43,381.67c.27-.09.54-.18.81-.28a3.646,3.646,0,0,0,.35-.14c.25-.1.5-.21.75-.32.11-.05.22-.1.32-.15.35-.17.69-.35,1.04-.55l7.05-4.1c-.34.2-.69.38-1.04.55-.11.05-.22.1-.32.15-.25.11-.5.22-.75.32-.12.05-.24.09-.35.14-.27.1-.54.19-.81.28l-.27.09c-.36.11-.72.2-1.08.28l-.17.03c-.44.1-.88.17-1.33.24l-.2.03c-.46.06-.92.1-1.38.13-.09.01-.19.01-.28.02q-.69.03-1.38.03h-.19c-.44-.01-.88-.03-1.31-.06-.06,0-.12-.01-.17-.01-.45-.04-.9-.08-1.35-.14a2.51,2.51,0,0,1-.27-.04c-.44-.06-.87-.13-1.3-.21-.07-.01-.13-.03-.2-.04-.41-.08-.82-.16-1.22-.25-.04-.01-.08-.02-.13-.03-.42-.1-.83-.2-1.23-.31l-.24-.06c-.39-.11-.78-.22-1.15-.34-.06-.02-.12-.04-.19-.06-.36-.12-.72-.23-1.06-.35a.185.185,0,0,0-.07-.02c-.36-.12-.7-.25-1.03-.38-.06-.02-.13-.05-.19-.07-.32-.12-.62-.24-.91-.36l-.15-.06c-.29-.12-.56-.24-.82-.35-.01,0-.02-.01-.03-.01-.27-.12-.51-.23-.74-.33l-.12-.06c-.21-.1-.41-.19-.59-.28-.03-.02-.07-.03-.1-.05-.17-.08-.34-.16-.47-.23l-49-28.29c-.13-.08-.27-.18-.43-.28a.709.709,0,0,1-.14-.1c-.12-.08-.25-.16-.38-.25l-.18-.12c-.16-.11-.33-.22-.5-.34l-.11-.08c-.21-.15-.44-.31-.67-.48-.05-.04-.11-.08-.17-.12-.22-.16-.45-.32-.68-.5-.07-.05-.14-.11-.22-.16-.29-.22-.59-.44-.91-.68-.05-.04-.1-.08-.16-.12q-.405-.315-.84-.66l-.27-.21c-.34-.28-.7-.56-1.06-.86-.03-.02-.06-.05-.09-.07-.34-.28-.68-.58-1.04-.88-.1-.09-.2-.17-.3-.26-.37-.32-.75-.65-1.14-1-.02-.02-.04-.03-.05-.05-.4-.36-.81-.74-1.22-1.12-.11-.1-.22-.21-.33-.31-.37-.35-.74-.7-1.11-1.07l-.18-.18c-.52-.51-1.05-1.04-1.58-1.59-.09-.1-.19-.19-.28-.29-.52-.54-1.05-1.11-1.59-1.69-.1-.1-.19-.21-.29-.32-.55-.6-1.1-1.23-1.66-1.87-.06-.07-.12-.14-.18-.22-.55-.65-1.11-1.31-1.67-2l-.15-.18c-.46-.57-.93-1.16-1.4-1.77-.12-.15-.24-.31-.36-.47-.39-.51-.78-1.03-1.16-1.55-.1-.14-.2-.27-.3-.4-.47-.64-.93-1.3-1.4-1.97-.1-.15-.21-.3-.31-.46q-.57-.84-1.14-1.71c-.12-.19-.25-.38-.37-.57-.27-.41-.53-.83-.79-1.25-.13-.2-.25-.4-.38-.61-.39-.63-.78-1.27-1.16-1.92-.62-1.05-1.2-2.08-1.76-3.11-.09-.16-.18-.32-.26-.48q-.795-1.47-1.5-2.91c-.14-.28-.28-.57-.42-.85l-.36-.75c-.17-.36-.34-.73-.51-1.09-.11-.23-.22-.47-.32-.7-.18-.39-.35-.78-.52-1.16-.09-.2-.18-.4-.26-.6-.21-.49-.41-.97-.61-1.45-.04-.09-.08-.19-.12-.29-.23-.57-.46-1.14-.68-1.7-.06-.16-.12-.32-.19-.49-.15-.4-.3-.79-.45-1.19-.08-.21-.15-.41-.22-.62l-.36-1.02c-.08-.22-.15-.44-.23-.66-.11-.32-.22-.64-.32-.95-.07-.22-.14-.43-.21-.65-.1-.31-.2-.62-.29-.93-.07-.21-.13-.42-.19-.63-.09-.31-.18-.62-.27-.92-.06-.2-.12-.4-.17-.59-.09-.32-.18-.64-.26-.95-.05-.17-.1-.35-.14-.52-.1-.37-.19-.74-.29-1.11-.03-.11-.06-.21-.08-.32q-.18-.705-.33-1.38c-.03-.12-.05-.23-.08-.35-.08-.33-.15-.67-.22-.99-.03-.16-.07-.32-.1-.48-.06-.27-.12-.55-.17-.82-.03-.17-.07-.33-.1-.5-.05-.25-.1-.5-.14-.74-.03-.17-.06-.33-.09-.49-.04-.24-.08-.47-.12-.7-.03-.16-.05-.32-.08-.47-.04-.23-.07-.45-.11-.68-.02-.15-.05-.29-.07-.43-.03-.23-.07-.45-.1-.67l-.06-.39c-.03-.24-.06-.47-.09-.71-.01-.1-.03-.2-.04-.29-.04-.32-.08-.63-.11-.94-.01-.05-.01-.1-.02-.15-.03-.25-.05-.49-.08-.72-.01-.1-.02-.2-.03-.31-.02-.17-.03-.34-.05-.51-.01-.11-.02-.21-.03-.32-.01-.15-.02-.29-.03-.43-.01-.1-.01-.2-.02-.3l-.03-.39c-.01-.09-.01-.18-.02-.27-.01-.12-.01-.24-.02-.36,0-.08-.01-.15-.01-.22-.01-.12-.01-.23-.02-.33,0-.06-.01-.13-.01-.19,0-.11-.01-.21-.01-.31v-.13c0-.13-.01-.26-.01-.37l-1.13-81.04a25.7,25.7,0,0,1,2.14-11.45,14.9,14.9,0,0,1,1.26-2.19,17.361,17.361,0,0,1,3.01-3.37c.22-.19.45-.38.69-.56a13.64,13.64,0,0,1,1.56-1.04h0l-7.05,4.1a16.853,16.853,0,0,0-6.53,7.16,25.7,25.7,0,0,0-2.14,11.45l1.13,81.04c0,.11.01.23.01.37v.13c0,.1.01.2.01.31,0,.06.01.13.01.2,0,.1.01.2.01.31,0,.08.01.16.01.24.01.11.01.23.02.35.01.09.01.18.02.27l.03.39c.01.1.01.2.02.3.01.14.02.29.03.43.01.11.02.21.03.32.01.16.03.34.05.51.01.1.02.2.03.31.02.23.05.48.08.72.01.05.01.1.02.15.03.3.07.61.11.94.01.09.03.19.04.29.03.23.06.46.09.7.02.13.04.27.06.4.03.22.06.43.1.66.02.15.05.3.07.44.03.22.07.44.11.67.03.16.05.32.08.48l.12.69.09.51c.04.24.09.48.14.73.03.17.07.34.1.51.05.27.11.54.17.82.03.16.07.31.1.48.07.33.15.66.22.99.03.12.05.23.08.35q.165.675.33,1.38c.03.12.06.24.09.35.09.35.18.71.28,1.07.05.17.1.35.14.53.09.31.17.63.26.95.06.2.11.4.17.59.09.3.18.61.27.92.06.21.13.42.2.64.09.31.19.61.29.92l.21.66c.1.31.21.63.32.95.07.22.15.44.23.66.12.33.24.67.36,1.01.08.21.15.42.23.63.14.38.29.77.44,1.16.07.17.13.34.19.51.22.56.44,1.13.68,1.7.04.09.08.19.12.29.2.48.4.96.61,1.45l.27.6c.17.38.34.77.51,1.15.11.23.22.47.33.71.17.36.33.72.51,1.08l.36.75c.1.2.19.39.29.59.04.08.09.17.13.26q.72,1.44,1.5,2.91c.09.16.17.32.26.48.56,1.03,1.14,2.07,1.76,3.11.38.65.77,1.29,1.16,1.92.13.2.25.4.38.6.27.42.53.84.8,1.26.05.08.1.16.15.23.07.11.15.22.22.33q.57.87,1.14,1.71c.11.15.21.31.32.46.46.67.93,1.33,1.39,1.96.1.14.2.27.3.41.39.53.77,1.04,1.16,1.55.12.16.24.31.36.47.47.6.93,1.19,1.4,1.77a.218.218,0,0,0,.04.05,1.5,1.5,0,0,1,.11.13c.56.69,1.11,1.35,1.67,1.99l.19.22c.56.65,1.11,1.26,1.66,1.87l.29.32c.54.58,1.07,1.15,1.59,1.69.09.1.19.19.28.29.53.55,1.06,1.08,1.58,1.59.01.01.02.03.04.04.05.05.1.09.15.14.38.37.75.72,1.11,1.07.11.1.22.21.33.31.41.39.82.76,1.22,1.12.02.02.04.03.06.05.39.35.76.68,1.13,1,.1.09.21.18.31.27.35.3.7.6,1.03.87.03.02.06.05.09.07.36.3.71.59,1.06.86.09.07.18.14.27.22q.435.345.84.66c.05.04.11.08.16.12.31.24.61.47.91.68.07.06.15.11.22.16.24.17.46.34.68.5.04.03.08.06.11.08s.04.03.06.04c.24.17.46.33.67.48l.11.08c.18.12.34.24.5.34l.18.12c.14.09.27.18.39.26a1.464,1.464,0,0,1,.13.09c.16.1.3.2.43.28l49,28.29c.14.07.3.15.47.23.03.02.07.03.1.05.18.09.38.18.59.28.04.02.08.04.13.06.23.11.47.22.74.33.01,0,.02.01.03.01.26.11.53.23.82.35l.15.06c.29.12.59.24.91.36.06.02.13.05.19.07.33.13.67.25,1.03.38a.185.185,0,0,0,.07.02c.34.12.7.24,1.06.35.06.02.12.04.19.06.37.12.76.23,1.15.34l.24.06c.4.11.81.21,1.23.31l.13.03c.4.09.81.18,1.22.25.07.01.13.03.2.04.43.08.86.15,1.3.21a2.51,2.51,0,0,1,.27.04c.45.06.89.11,1.35.14.06,0,.12.01.17.01.43.03.87.05,1.31.06h.19c.46.01.92-.01,1.38-.03a2.641,2.641,0,0,0,.28-.02c.46-.03.92-.07,1.38-.13l.2-.03c.44-.06.89-.14,1.33-.24.04-.01.08-.01.12-.02.02,0,.03-.01.05-.01.36-.08.72-.18,1.08-.28C271.26,381.73,271.35,381.69,271.43,381.67Z" fill="#7dd0f9"/>
        <path id="Path_245" data-name="Path 245" d="M192.74,211.36c.15.13.31.27.47.42.09.08.19.18.29.26.15.14.31.28.47.43.11.1.22.21.33.31.16.15.32.31.49.47.11.11.22.22.34.33l.65.65c.11.11.21.22.32.33.27.28.54.57.81.86.06.07.13.13.19.21.34.37.68.76,1.03,1.16.09.11.19.22.28.34q.39.45.78.93c.16.19.31.39.47.58.14.17.27.34.41.52.17.22.35.45.52.68.14.18.27.36.41.54.18.24.35.49.53.74.13.18.26.37.39.56.18.26.37.54.55.81.12.19.25.37.37.56.07.11.14.23.22.34.34.53.67,1.07,1,1.62.11.18.21.36.32.54.39.67.78,1.36,1.16,2.08.31.59.59,1.15.86,1.72.14.3.28.59.41.88.17.37.33.73.49,1.09.12.29.24.57.36.85.15.36.29.71.42,1.06.11.27.21.55.31.82.13.35.25.7.37,1.05.09.26.18.52.26.78q.18.525.33,1.05c.08.24.15.49.23.73.11.37.21.73.32,1.1.06.22.13.44.19.66l.33,1.23c.05.17.09.34.14.51.15.57.3,1.14.44,1.71a82.587,82.587,0,0,1,2.69,21.8c1.63.92,3.26,1.85,4.89,2.77l-4.9,2.85-.08,28.35,25.67,14.82c.53.33,1.06.69,1.58,1.06.38.27.75.54,1.12.83.05.04.1.08.16.12.43.34.86.68,1.28,1.04.13.11.25.22.38.33.29.26.58.51.87.78.15.14.3.29.45.43.22.21.44.42.65.64.46.46.91.92,1.35,1.4.07.08.15.16.22.24.51.56,1,1.13,1.48,1.72.14.17.27.34.4.51.33.42.66.84.98,1.27l.42.57c.35.49.69.99,1.03,1.49.08.11.16.23.23.34q.645.99,1.23,2.01c.1.18.2.35.3.53.31.55.6,1.1.89,1.66.1.2.2.39.3.59.09.18.17.35.25.53l.48,1.05c.08.19.16.37.24.56.15.36.3.73.44,1.09.06.17.13.33.19.5.2.53.38,1.06.56,1.59,2.98,9.19,1.06,15.2.53,16.69l7.05-4.1c.54-1.49,2.45-7.51-.53-16.69-.17-.53-.36-1.06-.56-1.59-.06-.17-.13-.33-.19-.5-.14-.36-.29-.73-.44-1.09-.08-.19-.16-.38-.24-.56-.15-.35-.31-.69-.47-1.04-.08-.18-.17-.36-.25-.53-.04-.08-.08-.17-.12-.25-.06-.11-.12-.23-.18-.34-.28-.56-.58-1.12-.89-1.67-.1-.18-.2-.36-.3-.53q-.585-1.02-1.23-2.01a.434.434,0,0,1-.04-.07c-.06-.09-.13-.18-.19-.28-.33-.5-.67-1-1.03-1.49l-.42-.57c-.32-.43-.64-.85-.98-1.27-.09-.11-.17-.23-.26-.34a1.071,1.071,0,0,0-.14-.16c-.48-.59-.97-1.16-1.48-1.72-.07-.08-.15-.16-.22-.24-.44-.48-.89-.95-1.35-1.4-.07-.07-.14-.15-.22-.22-.14-.14-.29-.27-.44-.41s-.3-.29-.45-.43q-.435-.4-.87-.78c-.13-.11-.25-.22-.38-.33-.42-.36-.85-.71-1.28-1.04-.05-.04-.1-.08-.16-.12-.33-.26-.67-.51-1-.75-.04-.03-.08-.05-.12-.08-.52-.37-1.05-.73-1.58-1.06l-25.67-14.82.07-25.89q12.78,7.23,25.55,14.46l7.05-4.1q-16.29-9.225-32.58-18.44a82.528,82.528,0,0,0-2.69-21.8c-.15-.57-.3-1.15-.45-1.72-.04-.16-.09-.32-.13-.48-.11-.42-.22-.84-.34-1.26-.06-.22-.13-.44-.19-.66-.1-.36-.21-.72-.31-1.09-.07-.24-.15-.49-.23-.74l-.33-1.05c-.08-.26-.18-.52-.26-.78-.12-.35-.24-.7-.37-1.05-.1-.27-.2-.54-.31-.82-.14-.35-.28-.7-.42-1.06-.12-.28-.24-.57-.36-.85-.16-.36-.32-.72-.49-1.09-.13-.29-.27-.59-.41-.88-.08-.16-.14-.31-.22-.46-.2-.41-.42-.83-.64-1.26-.38-.72-.77-1.4-1.16-2.08-.11-.18-.21-.36-.32-.54-.33-.55-.67-1.1-1-1.62-.05-.08-.1-.17-.15-.24a.866.866,0,0,0-.07-.1c-.12-.19-.24-.37-.37-.55-.18-.28-.37-.55-.55-.82-.13-.19-.26-.37-.39-.56-.18-.25-.35-.5-.53-.74-.14-.18-.27-.36-.41-.54-.17-.23-.35-.46-.52-.68-.14-.17-.27-.34-.41-.51-.1-.13-.2-.26-.31-.39l-.17-.2c-.26-.32-.52-.62-.77-.92-.1-.11-.19-.23-.29-.34-.35-.4-.69-.79-1.03-1.16-.07-.07-.13-.14-.19-.21-.27-.3-.55-.58-.81-.86l-.33-.33c-.22-.22-.43-.44-.64-.65-.05-.05-.11-.12-.17-.17s-.11-.11-.17-.16c-.17-.16-.33-.32-.49-.47-.11-.11-.22-.21-.33-.31-.16-.15-.32-.29-.47-.43-.1-.09-.19-.18-.29-.26-.16-.15-.32-.28-.47-.42l-.22-.19c-.22-.19-.42-.36-.61-.53a24.4,24.4,0,0,1,.62-2.63q.21-.705.48-1.44a15.094,15.094,0,0,1,1.82-3.52,9.622,9.622,0,0,1,2.95-2.76h0l-7.05,4.1c-3.85,2.24-5.29,7.2-5.87,10.34.19.16.4.34.61.53A2.33,2.33,0,0,1,192.74,211.36Z" fill="#7dd0f9"/>
        <path id="Path_246" data-name="Path 246" d="M195.89,193.55c.09-.03.18-.05.27-.08q.285-.09.57-.15a2.213,2.213,0,0,1,.25-.05c.38-.08.76-.15,1.13-.19a.277.277,0,0,0,.09-.01c.36-.04.72-.06,1.08-.07.05,0,.11-.01.16-.01.36-.01.71,0,1.05.02.07,0,.14.01.2.01q.51.03.99.09c.05.01.09.01.14.02.31.04.62.09.91.15.03.01.06.01.08.02.3.06.59.12.86.19.05.01.1.03.16.04.26.07.51.13.74.2.04.01.08.03.13.04.23.07.45.14.65.21l7.05-4.1c-.2-.07-.42-.14-.65-.21-.04-.01-.08-.03-.13-.04-.23-.07-.48-.14-.74-.2-.05-.01-.1-.03-.16-.04-.27-.07-.56-.13-.86-.19a.249.249,0,0,0-.08-.01c-.29-.06-.59-.1-.91-.15-.05-.01-.09-.01-.14-.02q-.48-.06-.99-.09c-.07,0-.13-.01-.2-.01-.34-.02-.69-.03-1.05-.02a.861.861,0,0,0-.16.01c-.36.01-.71.03-1.08.07a.277.277,0,0,0-.09.01c-.37.04-.75.11-1.13.19-.04.01-.09.01-.13.02l-.12.03c-.19.04-.38.1-.57.15-.09.03-.18.05-.28.08q-.42.135-.84.3a9.133,9.133,0,0,0-1.17.58l-7.05,4.1a9.133,9.133,0,0,1,1.17-.58C195.33,193.74,195.61,193.64,195.89,193.55Z" fill="#406b89"/>
      </g>
      <g id="Group_160" data-name="Group 160">
        <path id="Path_247" data-name="Path 247" d="M398.72,222.52a9.79,9.79,0,0,1,4.44,7.69l-.78,275.06c-.01,2.83-2.01,3.97-4.47,2.55L37.23,299.58a9.8,9.8,0,0,1-4.45-7.7l.78-275.06c.01-2.82,2.01-3.97,4.48-2.54ZM284.97,358.27a62.409,62.409,0,0,0-1.23-14.16,91.809,91.809,0,0,0-5.86-18.9c-8.89-20.16-27.51-33.4-29.9-35.07l-34.29-19.85-.08,28.35,25.67,14.82c7.71,4.84,14.47,13.65,17.46,22.88,2.98,9.19,1.06,15.2.53,16.69l-8.41-4.87c-18.29-10.56-32.43-18.51-42.33-23.6-.45-.23-1.03-.53-1.71-.92a27.478,27.478,0,0,1-7.58-6.49c-7.99-9.73-9.51-23.64-9.89-29.82-.83-40.75-.95-70.44-.53-78.52a23.522,23.522,0,0,1,1.65-7.96,12.518,12.518,0,0,1,6.57-7c4.03-1.65,8.23-.59,10.3.12-.69-.8-8.48-9.61-17.84-15.01-4.94-2.85-10.32-4.76-15.32-4.04-8.3,1.2-11.63,8.6-11.81,8.99a25.7,25.7,0,0,0-2.14,11.45l1.13,81.04c.09,3.73.89,21.74,13.38,42.96,11.32,19.23,24.81,28.45,28.37,30.75l49,28.29c3.15,1.58,17.11,8.15,26.62.43,3.9-3.17,5.77-7.71,6.71-11.09a42.655,42.655,0,0,0,1.53-9.47m102.5-105.8.06-19.79a5.254,5.254,0,0,0-2.37-4.11L101.89,65.02c-1.32-.76-2.38-.15-2.39,1.36l-.06,19.79a5.254,5.254,0,0,0,2.37,4.11L385.07,253.82c1.33.77,2.4.16,2.4-1.35M211.28,202.02c-4.09-2.36-8.09-3.48-11.49-2.55-5.39,1.47-7.22,7.54-7.88,11.18a57.389,57.389,0,0,1,13.64,16.99,63.723,63.723,0,0,1,5.47,15.24,82.587,82.587,0,0,1,2.69,21.8Q230,273.9,246.29,283.12a97.87,97.87,0,0,0-1.28-21.46,109.156,109.156,0,0,0-9.59-31.24,73.12,73.12,0,0,0-4.82-8.92c-4.79-7.44-12.17-15.36-19.32-19.48M87.39,79.22l.06-19.79a5.254,5.254,0,0,0-2.37-4.11L49.4,34.71c-1.32-.76-2.38-.15-2.39,1.36l-.06,19.79a5.254,5.254,0,0,0,2.37,4.11L85,80.58c1.32.76,2.39.15,2.39-1.36" fill="#5db0ed"/>
      </g>
      <g id="Group_161" data-name="Group 161">
        <path id="Path_248" data-name="Path 248" d="M385.16,228.56a5.2,5.2,0,0,1,2.37,4.11l-.06,19.79c0,1.51-1.07,2.12-2.39,1.36L101.82,90.29a5.2,5.2,0,0,1-2.37-4.11l.06-19.79c0-1.51,1.07-2.12,2.39-1.36Z" fill="#fff"/>
      </g>
      <path id="Path_249" data-name="Path 249" d="M410.13,225.1c-.02-.11-.05-.22-.07-.34-.05-.23-.1-.47-.16-.7-.04-.13-.08-.26-.13-.39-.07-.22-.15-.43-.24-.65-.06-.13-.11-.26-.17-.4-.04-.09-.07-.18-.11-.26-.05-.1-.11-.19-.16-.29-.11-.2-.22-.39-.33-.59-.05-.08-.09-.16-.14-.24a2.692,2.692,0,0,0-.2-.27c-.1-.14-.19-.28-.3-.41l-.15-.21a3.443,3.443,0,0,0-.26-.28c-.11-.12-.22-.25-.33-.36-.05-.05-.09-.1-.14-.15-.08-.08-.17-.14-.25-.21-.17-.15-.34-.3-.52-.44-.06-.04-.11-.1-.17-.14a5.951,5.951,0,0,0-.53-.34L45.09,10.18a5,5,0,0,0-.62-.3c-.05-.02-.1-.04-.14-.06a3.593,3.593,0,0,0-.59-.18.06.06,0,0,1-.04-.01,3.191,3.191,0,0,0-.52-.06h-.13a2.734,2.734,0,0,0-.5.05h-.02c-.01,0-.02.01-.03.01a2.013,2.013,0,0,0-.59.23h0l-7.05,4.1a2.013,2.013,0,0,1,.59-.23c.02,0,.03-.01.05-.01a2.734,2.734,0,0,1,.5-.05h.13a3.191,3.191,0,0,1,.52.06.06.06,0,0,1,.04.01,3.593,3.593,0,0,1,.59.18c.05.02.1.04.14.06a5,5,0,0,1,.62.3L398.72,222.52a6.328,6.328,0,0,1,.7.49,5.271,5.271,0,0,1,.52.44c.13.12.26.23.39.36l.33.36c.14.16.28.32.41.49.1.13.2.27.3.41q.18.255.33.51c.12.19.23.39.33.59.1.18.19.36.28.55.06.13.12.26.17.4.09.22.17.43.24.65.04.13.09.26.13.39a5.882,5.882,0,0,1,.16.7c.02.11.05.23.07.34a6.985,6.985,0,0,1,.08,1.01l-.78,275.06a3.1,3.1,0,0,1-1.3,2.86l7.05-4.1a3.125,3.125,0,0,0,1.3-2.86l.78-275.06A5.8,5.8,0,0,0,410.13,225.1Z" fill="#7dd0f9"/>
    </g>
    <g id="logo">
      <g id="Group_162" data-name="Group 162">
        <path id="Path_250" data-name="Path 250" d="M109.68,345.52c-.45-.23-1.02-.53-1.69-.91-.3-.17-.62-.37-.94-.57-.1-.06-.2-.13-.3-.19-.26-.17-.53-.35-.8-.54-.12-.09-.25-.17-.38-.26-.1-.07-.2-.15-.3-.23-.19-.14-.39-.3-.59-.45-.11-.08-.21-.17-.32-.26-.21-.18-.43-.36-.65-.55-.09-.08-.18-.16-.28-.24-.31-.28-.62-.57-.94-.88q-.345-.345-.69-.72c-.12-.13-.24-.24-.36-.37-.35-.39-.71-.79-1.06-1.22-.46-.56-.9-1.15-1.32-1.74-.11-.15-.21-.3-.31-.45-.28-.4-.54-.81-.8-1.22-.19-.31-.38-.61-.56-.92-.2-.35-.4-.69-.59-1.04-.17-.31-.34-.63-.5-.95-.2-.4-.4-.8-.59-1.2-.1-.2-.19-.4-.28-.61-.24-.54-.48-1.08-.7-1.63-.04-.09-.08-.18-.11-.27-.25-.63-.49-1.27-.71-1.91-.06-.18-.12-.37-.19-.55q-.24-.69-.45-1.38c-.07-.21-.13-.42-.19-.64-.13-.46-.26-.91-.38-1.37-.05-.18-.1-.36-.14-.53-.16-.62-.31-1.23-.44-1.83-.02-.08-.03-.16-.05-.25-.12-.53-.22-1.04-.32-1.55-.04-.19-.07-.38-.11-.57-.08-.41-.15-.81-.21-1.21-.03-.19-.06-.37-.09-.55-.07-.44-.14-.87-.2-1.3-.02-.11-.03-.22-.05-.33-.07-.53-.14-1.04-.19-1.53-.02-.13-.03-.26-.04-.39-.04-.36-.08-.72-.11-1.06-.01-.15-.03-.31-.04-.46-.03-.31-.05-.62-.08-.91-.01-.13-.02-.26-.03-.38-.03-.39-.05-.77-.08-1.11-.82-40.73-.95-70.42-.53-78.49a23.521,23.521,0,0,1,1.65-7.96,13.639,13.639,0,0,1,4.15-5.57,11.37,11.37,0,0,1,1.24-.84h0l-7.05,4.1a13.12,13.12,0,0,0-5.39,6.41,23.773,23.773,0,0,0-1.65,7.96c-.41,8.07-.29,37.76.53,78.49.02.35.05.72.08,1.11.01.12.02.25.03.38.02.29.05.59.08.91.01.15.03.3.04.46.03.34.07.7.11,1.07.01.13.03.25.04.38.06.49.12,1.01.19,1.53.01.11.03.22.05.33.06.42.12.86.2,1.3.03.18.06.37.09.55.07.4.14.8.21,1.21.04.19.07.38.11.57.1.51.21,1.03.32,1.55.02.08.03.16.05.25.14.6.29,1.22.44,1.83.05.17.09.35.14.53.12.45.25.91.38,1.37.06.21.13.42.19.64q.21.69.45,1.38c.06.18.12.37.19.55.22.64.46,1.27.71,1.91.04.09.08.18.11.27.22.54.45,1.09.7,1.63.09.2.19.4.28.6.11.23.21.47.33.7.08.17.18.33.26.5.16.32.33.63.5.95.19.35.39.7.59,1.04.18.31.37.62.56.92.1.15.18.31.28.47.17.25.34.5.52.75.1.15.21.31.31.46.38.54.78,1.07,1.2,1.58l.12.15c.35.43.71.84,1.06,1.22.12.13.24.24.35.37.23.25.47.5.7.72l.02.02c.31.3.62.59.92.86.09.08.19.16.28.24.22.19.44.38.65.55l.32.26c.2.16.39.31.59.45.1.08.2.15.3.23.05.04.11.08.16.12.08.05.14.09.22.15.27.19.54.37.8.54.1.06.2.13.3.19.33.21.65.4.94.57.67.39,1.24.68,1.69.91,9.94,5.1,24.13,13.08,42.5,23.69q3.975,2.295,8.22,4.76l7.05-4.1q-4.245-2.46-8.22-4.76C133.81,358.6,119.61,350.62,109.68,345.52Z" fill="#d8d8d8"/>
        <path id="Path_251" data-name="Path 251" d="M186.85,365.06a92.511,92.511,0,0,0-5.85-18.9c-.34-.78-.71-1.55-1.08-2.3-.04-.09-.08-.18-.12-.26s-.09-.16-.13-.24c-.56-1.11-1.14-2.2-1.75-3.27l-.24-.42q-.915-1.59-1.89-3.09c-.04-.06-.08-.13-.12-.2-.08-.12-.16-.23-.24-.35-.24-.36-.48-.72-.72-1.07-.16-.23-.31-.46-.47-.69-.26-.37-.51-.73-.77-1.09-.15-.2-.29-.4-.44-.6-.31-.42-.63-.84-.94-1.26-.1-.13-.19-.25-.29-.38-.41-.53-.83-1.06-1.24-1.57-.01-.02-.03-.04-.04-.06l-.12-.15c-.52-.63-1.03-1.25-1.55-1.85l-.33-.39c-.54-.63-1.09-1.24-1.63-1.83-.11-.12-.22-.23-.33-.35-.51-.55-1.02-1.09-1.52-1.61-.06-.06-.12-.13-.18-.19-.54-.56-1.08-1.1-1.61-1.62l-.17-.17c-.12-.11-.23-.22-.34-.33-.13-.13-.27-.26-.4-.39l-.67-.64c-.12-.11-.24-.23-.36-.34l-.79-.73c-.07-.06-.14-.13-.21-.19-.33-.3-.65-.59-.97-.87-.09-.08-.18-.16-.28-.24-.22-.2-.45-.39-.67-.58-.12-.1-.23-.2-.35-.3-.19-.16-.38-.32-.56-.48-.12-.1-.24-.2-.35-.3-.18-.15-.35-.29-.52-.44l-.33-.27c-.18-.15-.35-.29-.53-.43-.09-.07-.18-.15-.27-.22-.22-.18-.43-.34-.63-.51a1.063,1.063,0,0,1-.11-.09q-.36-.285-.69-.54c-.07-.06-.14-.11-.22-.17-.15-.11-.29-.22-.43-.33-.08-.06-.15-.11-.22-.17-.12-.09-.24-.18-.35-.26-.07-.05-.14-.1-.21-.16-.11-.08-.21-.16-.31-.23-.06-.04-.11-.08-.17-.12-.11-.08-.2-.15-.29-.21a.833.833,0,0,0-.12-.08c-.01-.01-.02-.01-.03-.02-.07-.05-.13-.09-.19-.14l-.13-.1c-.1-.07-.18-.13-.25-.18l-6.9-4,5.21-3.03a97.87,97.87,0,0,0-1.28-21.46,108.877,108.877,0,0,0-9.59-31.23c-.2-.42-.4-.83-.59-1.22a3.541,3.541,0,0,1-.16-.34c-.14-.29-.28-.57-.42-.85-.02-.03-.03-.07-.05-.1-.03-.05-.05-.11-.08-.16-.2-.4-.4-.79-.6-1.18-.06-.12-.13-.25-.19-.37-.24-.46-.49-.93-.75-1.39-.03-.05-.06-.11-.09-.16q-.345-.615-.72-1.26c-.08-.13-.15-.26-.23-.39-.29-.49-.6-.98-.93-1.49-.02-.04-.05-.07-.07-.11-.1-.16-.21-.32-.32-.48-.2-.3-.4-.6-.61-.91l-.42-.6c-.2-.28-.39-.56-.6-.84-.15-.21-.31-.42-.46-.62-.2-.27-.4-.54-.61-.82-.16-.21-.33-.42-.49-.63-.21-.27-.42-.53-.63-.8-.05-.07-.1-.13-.16-.2-.04-.05-.09-.1-.13-.15-.76-.94-1.56-1.86-2.37-2.77-.09-.1-.18-.19-.26-.29-.83-.92-1.69-1.81-2.57-2.67l-.12-.12a.942.942,0,0,1-.1-.1c-.48-.47-.96-.93-1.45-1.37-.06-.05-.11-.1-.17-.15-.43-.39-.87-.78-1.3-1.15-.16-.14-.33-.27-.49-.41-.34-.28-.67-.56-1.01-.83-.18-.14-.36-.29-.54-.43-.33-.26-.67-.51-1-.75-.12-.08-.23-.18-.35-.26a2.026,2.026,0,0,1-.18-.13c-.33-.23-.66-.45-.98-.67-.16-.11-.32-.22-.48-.32-.49-.31-.97-.61-1.46-.89s-1-.56-1.5-.81c-.16-.08-.32-.15-.48-.23-.33-.16-.67-.32-1-.46-.19-.08-.39-.15-.58-.22-.3-.12-.59-.24-.89-.34-.21-.07-.41-.12-.61-.18-.28-.08-.56-.17-.83-.24-.21-.05-.41-.08-.62-.13-.26-.05-.53-.11-.79-.15-.21-.03-.41-.04-.62-.06-.25-.02-.51-.05-.76-.06-.21-.01-.41.01-.61.01-.24.01-.48.01-.72.04-.2.02-.4.06-.6.09-.17.03-.34.04-.5.08-.13.03-.25.06-.37.09a8.6,8.6,0,0,0-2.01.84l-7.05,4.1a8.422,8.422,0,0,1,2.01-.84,8.547,8.547,0,0,1,.88-.17c.2-.03.39-.07.6-.09.24-.02.48-.03.72-.04.2-.01.4-.02.61-.01.25.01.5.03.76.06.21.02.41.03.62.06.26.04.53.09.79.15.21.04.41.07.62.13.27.07.55.15.83.24.2.06.41.11.61.18.29.1.59.22.89.34.19.08.39.14.58.22.33.14.67.3,1,.46.16.08.32.14.48.23q.75.375,1.5.81c.48.28.97.58,1.46.89.16.1.32.21.48.32.33.22.66.44.98.67.18.13.35.26.53.39.33.24.67.49,1,.75.18.14.36.28.55.43.34.27.67.54,1.01.83.16.14.33.27.49.41.44.37.87.76,1.3,1.15.06.05.11.1.17.15.49.45.97.91,1.45,1.37.07.07.14.15.22.22.88.86,1.73,1.76,2.57,2.67.09.1.18.19.26.29.82.91,1.61,1.83,2.37,2.77.09.12.19.23.29.35.21.26.42.53.62.79.17.21.34.43.5.64.21.27.41.54.61.81.16.21.31.42.46.63.2.28.4.56.59.84.14.2.29.4.42.6.2.3.4.59.59.89.13.2.27.4.4.6.33.51.64,1.01.93,1.49.08.13.15.26.23.38.25.42.49.84.72,1.25.03.06.07.11.1.17.26.46.5.93.75,1.39.06.12.13.24.19.36.2.39.4.78.6,1.18.04.09.09.18.13.27.14.28.28.56.42.85.05.11.11.22.16.34.19.4.39.8.59,1.22a108.968,108.968,0,0,1,9.59,31.23,100.064,100.064,0,0,1,1.36,19.37l-25.61-14.83-7.05,4.1,34.27,19.85c.07.05.16.11.25.18a1.132,1.132,0,0,1,.13.1c.07.05.14.1.22.16a.833.833,0,0,0,.12.08c.09.07.19.14.29.21.05.04.11.08.17.12.1.07.21.15.32.23.07.05.13.1.2.15l.36.27c.07.05.14.11.22.16.14.1.28.22.43.33.07.06.14.11.22.17q.33.255.69.54a1.063,1.063,0,0,0,.11.09c.21.16.42.33.64.51.08.07.17.14.26.21.18.14.36.29.54.44.1.09.21.17.32.26.18.15.35.29.53.45.11.1.23.19.34.29l.57.48c.11.1.23.2.34.3l.68.59.26.23c.32.28.64.58.97.88.06.06.13.12.19.17.27.25.54.49.81.75.12.11.23.22.35.33.23.21.45.43.68.65.13.13.26.25.39.38.17.17.34.34.51.5.53.52,1.07,1.06,1.61,1.62.06.06.13.13.19.2.5.52,1.01,1.06,1.52,1.61.11.12.22.23.32.35.54.59,1.09,1.2,1.63,1.83l.33.39c.52.61,1.04,1.22,1.56,1.86.05.07.11.13.16.2.42.52.83,1.04,1.25,1.57.1.12.19.25.29.38.32.41.63.83.94,1.26.15.2.29.4.43.6.26.36.52.72.78,1.09.16.23.31.45.47.68.24.35.48.71.72,1.07.12.18.24.37.36.55q.975,1.515,1.89,3.09l.24.42c.61,1.06,1.19,2.15,1.75,3.27.08.17.17.33.25.5.37.76.73,1.52,1.08,2.3a92.512,92.512,0,0,1,5.85,18.9,62.3,62.3,0,0,1,1.23,14.15,43.873,43.873,0,0,1-1.53,9.47c-.94,3.39-2.8,7.92-6.7,11.09a15.468,15.468,0,0,1-2.02,1.39l7.05-4.1a16.166,16.166,0,0,0,2.02-1.39c3.9-3.17,5.76-7.7,6.7-11.09a43.873,43.873,0,0,0,1.53-9.47A63.4,63.4,0,0,0,186.85,365.06Z" fill="#d8d8d8"/>
        <path id="Path_252" data-name="Path 252" d="M85.68,205.34c.21.13.41.27.61.4.5.33,1,.67,1.48,1.02.22.15.44.31.65.46s.4.29.59.44c.31.23.61.46.91.69.19.15.38.3.57.44.3.24.6.47.89.71.17.14.35.28.52.42.31.25.61.51.91.76.14.12.29.24.43.37.4.34.78.68,1.16,1.02.03.03.07.06.1.09.41.37.8.72,1.18,1.08.12.11.23.22.35.33.25.24.5.47.74.7.13.13.26.25.39.37.21.21.43.41.63.61.11.1.21.21.31.31l.59.59c.08.09.17.17.25.26.24.24.46.47.67.69l.05.05c.22.23.42.45.61.65.06.06.11.12.17.18.12.13.24.26.34.36a1.74,1.74,0,0,1,.13.15c.09.1.18.2.25.28a.647.647,0,0,1,.08.09c.08.09.15.17.19.21l7.05-4.1c-.04-.04-.1-.12-.19-.21a.647.647,0,0,0-.08-.09q-.1-.12-.24-.27c-.05-.05-.09-.1-.14-.16-.1-.11-.2-.22-.32-.35-.06-.07-.12-.13-.18-.2-.18-.2-.38-.41-.6-.64-.02-.02-.03-.04-.05-.05l-.67-.7c-.08-.08-.16-.17-.25-.25-.19-.19-.38-.39-.59-.59l-.31-.31-.24-.24c-.12-.12-.25-.25-.38-.37s-.26-.25-.39-.38c-.23-.23-.48-.46-.73-.69-.12-.11-.24-.22-.36-.34-.38-.35-.77-.71-1.18-1.07-.03-.03-.07-.06-.1-.09-.37-.33-.76-.67-1.15-1.01-.14-.12-.29-.25-.44-.37-.3-.25-.59-.5-.9-.75-.17-.14-.35-.28-.53-.43-.29-.24-.59-.47-.89-.71-.19-.15-.38-.3-.58-.45-.3-.23-.6-.46-.91-.69l-.59-.44c-.1-.07-.2-.15-.3-.22-.12-.08-.24-.16-.35-.24-.49-.34-.98-.68-1.48-1.02-.2-.13-.4-.27-.61-.4-.69-.44-1.38-.88-2.09-1.28-4.94-2.85-10.31-4.75-15.31-4.04-.4.06-.79.13-1.17.22a1.208,1.208,0,0,0-.18.05c-.14.03-.28.07-.42.11-.3.08-.59.17-.87.26-.14.05-.29.1-.43.15-.28.1-.55.22-.81.33a3.728,3.728,0,0,0-.35.16c-.36.17-.72.36-1.05.55l-7.05,4.1c.34-.2.69-.38,1.05-.55.11-.05.23-.1.35-.16q.39-.18.81-.33c.14-.05.28-.1.43-.15.28-.1.57-.18.87-.26.14-.04.28-.08.42-.11.44-.1.88-.2,1.35-.26,5-.72,10.38,1.19,15.31,4.04C84.3,204.46,85,204.89,85.68,205.34Z" fill="#d8d8d8"/>
      </g>
      <g id="Group_163" data-name="Group 163">
        <path id="Path_253" data-name="Path 253" d="M107.37,227.11c7.14,4.12,14.53,12.03,19.32,19.46a75.06,75.06,0,0,1,4.82,8.91,108.968,108.968,0,0,1,9.59,31.23,97.87,97.87,0,0,1,1.28,21.46q-16.275-9.225-32.57-18.44a82.866,82.866,0,0,0-2.69-21.79,64.034,64.034,0,0,0-5.46-15.23,57.589,57.589,0,0,0-13.64-16.98c.66-3.64,2.49-9.7,7.87-11.17C99.27,223.63,103.28,224.75,107.37,227.11Z" fill="#fff"/>
      </g>
      <g id="Group_164" data-name="Group 164">
        <path id="Path_254" data-name="Path 254" d="M83.6,204.05c9.36,5.4,17.14,14.21,17.84,15.01-2.06-.7-6.26-1.76-10.29-.12a12.454,12.454,0,0,0-6.57,7,23.773,23.773,0,0,0-1.65,7.96c-.41,8.07-.29,37.76.53,78.49.37,6.18,1.89,20.09,9.88,29.81a27.552,27.552,0,0,0,7.61,6.5c.67.39,1.24.68,1.69.91,9.94,5.1,24.13,13.08,42.5,23.69q3.975,2.295,8.22,4.76c.54-1.48,2.45-7.5-.52-16.68-2.99-9.22-9.76-18.05-17.46-22.88l-25.65-14.81.08-28.33,34.27,19.85c2.39,1.67,21,14.9,29.89,35.06a92.512,92.512,0,0,1,5.85,18.9,62.3,62.3,0,0,1,1.23,14.15,43.873,43.873,0,0,1-1.53,9.47c-.94,3.39-2.8,7.92-6.7,11.09-9.51,7.71-23.46,1.14-26.61-.44L97.23,375.16c-3.56-2.31-17.04-11.51-28.36-30.74-12.49-21.21-13.29-39.22-13.38-42.95l-1.13-81.01a25.706,25.706,0,0,1,2.14-11.44c.18-.39,3.51-7.79,11.81-8.98C73.28,199.3,78.66,201.2,83.6,204.05Z" fill="#fff"/>
      </g>
    </g>
  </g>
</svg>
