<svg xmlns="http://www.w3.org/2000/svg" width="377.432" height="498.861" viewBox="0 0 377.432 498.861">
  <g id="browser" transform="translate(-32.78 -9.57)">
    <g id="Group_158" data-name="Group 158">
      <path id="Path_243" data-name="Path 243" d="M85.08,55.31a5.2,5.2,0,0,1,2.37,4.11l-.06,19.79c0,1.51-1.07,2.12-2.39,1.36L49.32,59.97a5.2,5.2,0,0,1-2.37-4.11l.06-19.79c0-1.51,1.07-2.12,2.39-1.36Z" fill="#fff"/>
    </g>
    <g id="Group_159" data-name="Group 159">
      <path id="Path_244" data-name="Path 244" d="M271.43,381.67c.27-.09.54-.18.81-.28a3.646,3.646,0,0,0,.35-.14c.25-.1.5-.21.75-.32.11-.05.22-.1.32-.15.35-.17.69-.35,1.04-.55l7.05-4.1c-.34.2-.69.38-1.04.55-.11.05-.22.1-.32.15-.25.11-.5.22-.75.32-.12.05-.24.09-.35.14-.27.1-.54.19-.81.28l-.27.09c-.36.11-.72.2-1.08.28l-.17.03c-.44.1-.88.17-1.33.24l-.2.03c-.46.06-.92.1-1.38.13-.09.01-.19.01-.28.02q-.69.03-1.38.03h-.19c-.44-.01-.88-.03-1.31-.06-.06,0-.12-.01-.17-.01-.45-.04-.9-.08-1.35-.14a2.51,2.51,0,0,1-.27-.04c-.44-.06-.87-.13-1.3-.21-.07-.01-.13-.03-.2-.04-.41-.08-.82-.16-1.22-.25-.04-.01-.08-.02-.13-.03-.42-.1-.83-.2-1.23-.31l-.24-.06c-.39-.11-.78-.22-1.15-.34-.06-.02-.12-.04-.19-.06-.36-.12-.72-.23-1.06-.35a.185.185,0,0,0-.07-.02c-.36-.12-.7-.25-1.03-.38-.06-.02-.13-.05-.19-.07-.32-.12-.62-.24-.91-.36l-.15-.06c-.29-.12-.56-.24-.82-.35-.01,0-.02-.01-.03-.01-.27-.12-.51-.23-.74-.33l-.12-.06c-.21-.1-.41-.19-.59-.28-.03-.02-.07-.03-.1-.05-.17-.08-.34-.16-.47-.23l-49-28.29c-.13-.08-.27-.18-.43-.28a.709.709,0,0,1-.14-.1c-.12-.08-.25-.16-.38-.25l-.18-.12c-.16-.11-.33-.22-.5-.34l-.11-.08c-.21-.15-.44-.31-.67-.48-.05-.04-.11-.08-.17-.12-.22-.16-.45-.32-.68-.5-.07-.05-.14-.11-.22-.16-.29-.22-.59-.44-.91-.68-.05-.04-.1-.08-.16-.12q-.405-.315-.84-.66l-.27-.21c-.34-.28-.7-.56-1.06-.86-.03-.02-.06-.05-.09-.07-.34-.28-.68-.58-1.04-.88-.1-.09-.2-.17-.3-.26-.37-.32-.75-.65-1.14-1-.02-.02-.04-.03-.05-.05-.4-.36-.81-.74-1.22-1.12-.11-.1-.22-.21-.33-.31-.37-.35-.74-.7-1.11-1.07l-.18-.18c-.52-.51-1.05-1.04-1.58-1.59-.09-.1-.19-.19-.28-.29-.52-.54-1.05-1.11-1.59-1.69-.1-.1-.19-.21-.29-.32-.55-.6-1.1-1.23-1.66-1.87-.06-.07-.12-.14-.18-.22-.55-.65-1.11-1.31-1.67-2l-.15-.18c-.46-.57-.93-1.16-1.4-1.77-.12-.15-.24-.31-.36-.47-.39-.51-.78-1.03-1.16-1.55-.1-.14-.2-.27-.3-.4-.47-.64-.93-1.3-1.4-1.97-.1-.15-.21-.3-.31-.46q-.57-.84-1.14-1.71c-.12-.19-.25-.38-.37-.57-.27-.41-.53-.83-.79-1.25-.13-.2-.25-.4-.38-.61-.39-.63-.78-1.27-1.16-1.92-.62-1.05-1.2-2.08-1.76-3.11-.09-.16-.18-.32-.26-.48q-.795-1.47-1.5-2.91c-.14-.28-.28-.57-.42-.85l-.36-.75c-.17-.36-.34-.73-.51-1.09-.11-.23-.22-.47-.32-.7-.18-.39-.35-.78-.52-1.16-.09-.2-.18-.4-.26-.6-.21-.49-.41-.97-.61-1.45-.04-.09-.08-.19-.12-.29-.23-.57-.46-1.14-.68-1.7-.06-.16-.12-.32-.19-.49-.15-.4-.3-.79-.45-1.19-.08-.21-.15-.41-.22-.62l-.36-1.02c-.08-.22-.15-.44-.23-.66-.11-.32-.22-.64-.32-.95-.07-.22-.14-.43-.21-.65-.1-.31-.2-.62-.29-.93-.07-.21-.13-.42-.19-.63-.09-.31-.18-.62-.27-.92-.06-.2-.12-.4-.17-.59-.09-.32-.18-.64-.26-.95-.05-.17-.1-.35-.14-.52-.1-.37-.19-.74-.29-1.11-.03-.11-.06-.21-.08-.32q-.18-.705-.33-1.38c-.03-.12-.05-.23-.08-.35-.08-.33-.15-.67-.22-.99-.03-.16-.07-.32-.1-.48-.06-.27-.12-.55-.17-.82-.03-.17-.07-.33-.1-.5-.05-.25-.1-.5-.14-.74-.03-.17-.06-.33-.09-.49-.04-.24-.08-.47-.12-.7-.03-.16-.05-.32-.08-.47-.04-.23-.07-.45-.11-.68-.02-.15-.05-.29-.07-.43-.03-.23-.07-.45-.1-.67l-.06-.39c-.03-.24-.06-.47-.09-.71-.01-.1-.03-.2-.04-.29-.04-.32-.08-.63-.11-.94-.01-.05-.01-.1-.02-.15-.03-.25-.05-.49-.08-.72-.01-.1-.02-.2-.03-.31-.02-.17-.03-.34-.05-.51-.01-.11-.02-.21-.03-.32-.01-.15-.02-.29-.03-.43-.01-.1-.01-.2-.02-.3l-.03-.39c-.01-.09-.01-.18-.02-.27-.01-.12-.01-.24-.02-.36,0-.08-.01-.15-.01-.22-.01-.12-.01-.23-.02-.33,0-.06-.01-.13-.01-.19,0-.11-.01-.21-.01-.31v-.13c0-.13-.01-.26-.01-.37l-1.13-81.04a25.7,25.7,0,0,1,2.14-11.45,14.9,14.9,0,0,1,1.26-2.19,17.361,17.361,0,0,1,3.01-3.37c.22-.19.45-.38.69-.56a13.64,13.64,0,0,1,1.56-1.04h0l-7.05,4.1a16.853,16.853,0,0,0-6.53,7.16,25.7,25.7,0,0,0-2.14,11.45l1.13,81.04c0,.11.01.23.01.37v.13c0,.1.01.2.01.31,0,.06.01.13.01.2,0,.1.01.2.01.31,0,.08.01.16.01.24.01.11.01.23.02.35.01.09.01.18.02.27l.03.39c.01.1.01.2.02.3.01.14.02.29.03.43.01.11.02.21.03.32.01.16.03.34.05.51.01.1.02.2.03.31.02.23.05.48.08.72.01.05.01.1.02.15.03.3.07.61.11.94.01.09.03.19.04.29.03.23.06.46.09.7.02.13.04.27.06.4.03.22.06.43.1.66.02.15.05.3.07.44.03.22.07.44.11.67.03.16.05.32.08.48l.12.69.09.51c.04.24.09.48.14.73.03.17.07.34.1.51.05.27.11.54.17.82.03.16.07.31.1.48.07.33.15.66.22.99.03.12.05.23.08.35q.165.675.33,1.38c.03.12.06.24.09.35.09.35.18.71.28,1.07.05.17.1.35.14.53.09.31.17.63.26.95.06.2.11.4.17.59.09.3.18.61.27.92.06.21.13.42.2.64.09.31.19.61.29.92l.21.66c.1.31.21.63.32.95.07.22.15.44.23.66.12.33.24.67.36,1.01.08.21.15.42.23.63.14.38.29.77.44,1.16.07.17.13.34.19.51.22.56.44,1.13.68,1.7.04.09.08.19.12.29.2.48.4.96.61,1.45l.27.6c.17.38.34.77.51,1.15.11.23.22.47.33.71.17.36.33.72.51,1.08l.36.75c.1.2.19.39.29.59.04.08.09.17.13.26q.72,1.44,1.5,2.91c.09.16.17.32.26.48.56,1.03,1.14,2.07,1.76,3.11.38.65.77,1.29,1.16,1.92.13.2.25.4.38.6.27.42.53.84.8,1.26.05.08.1.16.15.23.07.11.15.22.22.33q.57.87,1.14,1.71c.11.15.21.31.32.46.46.67.93,1.33,1.39,1.96.1.14.2.27.3.41.39.53.77,1.04,1.16,1.55.12.16.24.31.36.47.47.6.93,1.19,1.4,1.77a.218.218,0,0,0,.04.05,1.5,1.5,0,0,1,.11.13c.56.69,1.11,1.35,1.67,1.99l.19.22c.56.65,1.11,1.26,1.66,1.87l.29.32c.54.58,1.07,1.15,1.59,1.69.09.1.19.19.28.29.53.55,1.06,1.08,1.58,1.59.01.01.02.03.04.04.05.05.1.09.15.14.38.37.75.72,1.11,1.07.11.1.22.21.33.31.41.39.82.76,1.22,1.12.02.02.04.03.06.05.39.35.76.68,1.13,1,.1.09.21.18.31.27.35.3.7.6,1.03.87.03.02.06.05.09.07.36.3.71.59,1.06.86.09.07.18.14.27.22q.435.345.84.66c.05.04.11.08.16.12.31.24.61.47.91.68.07.06.15.11.22.16.24.17.46.34.68.5.04.03.08.06.11.08s.04.03.06.04c.24.17.46.33.67.48l.11.08c.18.12.34.24.5.34l.18.12c.14.09.27.18.39.26a1.464,1.464,0,0,1,.13.09c.16.1.3.2.43.28l49,28.29c.14.07.3.15.47.23.03.02.07.03.1.05.18.09.38.18.59.28.04.02.08.04.13.06.23.11.47.22.74.33.01,0,.02.01.03.01.26.11.53.23.82.35l.15.06c.29.12.59.24.91.36.06.02.13.05.19.07.33.13.67.25,1.03.38a.185.185,0,0,0,.07.02c.34.12.7.24,1.06.35.06.02.12.04.19.06.37.12.76.23,1.15.34l.24.06c.4.11.81.21,1.23.31l.13.03c.4.09.81.18,1.22.25.07.01.13.03.2.04.43.08.86.15,1.3.21a2.51,2.51,0,0,1,.27.04c.45.06.89.11,1.35.14.06,0,.12.01.17.01.43.03.87.05,1.31.06h.19c.46.01.92-.01,1.38-.03a2.641,2.641,0,0,0,.28-.02c.46-.03.92-.07,1.38-.13l.2-.03c.44-.06.89-.14,1.33-.24.04-.01.08-.01.12-.02.02,0,.03-.01.05-.01.36-.08.72-.18,1.08-.28C271.26,381.73,271.35,381.69,271.43,381.67Z" fill="#7dd0f9"/>
      <path id="Path_245" data-name="Path 245" d="M192.74,211.36c.15.13.31.27.47.42.09.08.19.18.29.26.15.14.31.28.47.43.11.1.22.21.33.31.16.15.32.31.49.47.11.11.22.22.34.33l.65.65c.11.11.21.22.32.33.27.28.54.57.81.86.06.07.13.13.19.21.34.37.68.76,1.03,1.16.09.11.19.22.28.34q.39.45.78.93c.16.19.31.39.47.58.14.17.27.34.41.52.17.22.35.45.52.68.14.18.27.36.41.54.18.24.35.49.53.74.13.18.26.37.39.56.18.26.37.54.55.81.12.19.25.37.37.56.07.11.14.23.22.34.34.53.67,1.07,1,1.62.11.18.21.36.32.54.39.67.78,1.36,1.16,2.08.31.59.59,1.15.86,1.72.14.3.28.59.41.88.17.37.33.73.49,1.09.12.29.24.57.36.85.15.36.29.71.42,1.06.11.27.21.55.31.82.13.35.25.7.37,1.05.09.26.18.52.26.78q.18.525.33,1.05c.08.24.15.49.23.73.11.37.21.73.32,1.1.06.22.13.44.19.66l.33,1.23c.05.17.09.34.14.51.15.57.3,1.14.44,1.71a82.587,82.587,0,0,1,2.69,21.8c1.63.92,3.26,1.85,4.89,2.77l-4.9,2.85-.08,28.35,25.67,14.82c.53.33,1.06.69,1.58,1.06.38.27.75.54,1.12.83.05.04.1.08.16.12.43.34.86.68,1.28,1.04.13.11.25.22.38.33.29.26.58.51.87.78.15.14.3.29.45.43.22.21.44.42.65.64.46.46.91.92,1.35,1.4.07.08.15.16.22.24.51.56,1,1.13,1.48,1.72.14.17.27.34.4.51.33.42.66.84.98,1.27l.42.57c.35.49.69.99,1.03,1.49.08.11.16.23.23.34q.645.99,1.23,2.01c.1.18.2.35.3.53.31.55.6,1.1.89,1.66.1.2.2.39.3.59.09.18.17.35.25.53l.48,1.05c.08.19.16.37.24.56.15.36.3.73.44,1.09.06.17.13.33.19.5.2.53.38,1.06.56,1.59,2.98,9.19,1.06,15.2.53,16.69l7.05-4.1c.54-1.49,2.45-7.51-.53-16.69-.17-.53-.36-1.06-.56-1.59-.06-.17-.13-.33-.19-.5-.14-.36-.29-.73-.44-1.09-.08-.19-.16-.38-.24-.56-.15-.35-.31-.69-.47-1.04-.08-.18-.17-.36-.25-.53-.04-.08-.08-.17-.12-.25-.06-.11-.12-.23-.18-.34-.28-.56-.58-1.12-.89-1.67-.1-.18-.2-.36-.3-.53q-.585-1.02-1.23-2.01a.434.434,0,0,1-.04-.07c-.06-.09-.13-.18-.19-.28-.33-.5-.67-1-1.03-1.49l-.42-.57c-.32-.43-.64-.85-.98-1.27-.09-.11-.17-.23-.26-.34a1.071,1.071,0,0,0-.14-.16c-.48-.59-.97-1.16-1.48-1.72-.07-.08-.15-.16-.22-.24-.44-.48-.89-.95-1.35-1.4-.07-.07-.14-.15-.22-.22-.14-.14-.29-.27-.44-.41s-.3-.29-.45-.43q-.435-.4-.87-.78c-.13-.11-.25-.22-.38-.33-.42-.36-.85-.71-1.28-1.04-.05-.04-.1-.08-.16-.12-.33-.26-.67-.51-1-.75-.04-.03-.08-.05-.12-.08-.52-.37-1.05-.73-1.58-1.06l-25.67-14.82.07-25.89q12.78,7.23,25.55,14.46l7.05-4.1q-16.29-9.225-32.58-18.44a82.528,82.528,0,0,0-2.69-21.8c-.15-.57-.3-1.15-.45-1.72-.04-.16-.09-.32-.13-.48-.11-.42-.22-.84-.34-1.26-.06-.22-.13-.44-.19-.66-.1-.36-.21-.72-.31-1.09-.07-.24-.15-.49-.23-.74l-.33-1.05c-.08-.26-.18-.52-.26-.78-.12-.35-.24-.7-.37-1.05-.1-.27-.2-.54-.31-.82-.14-.35-.28-.7-.42-1.06-.12-.28-.24-.57-.36-.85-.16-.36-.32-.72-.49-1.09-.13-.29-.27-.59-.41-.88-.08-.16-.14-.31-.22-.46-.2-.41-.42-.83-.64-1.26-.38-.72-.77-1.4-1.16-2.08-.11-.18-.21-.36-.32-.54-.33-.55-.67-1.1-1-1.62-.05-.08-.1-.17-.15-.24a.866.866,0,0,0-.07-.1c-.12-.19-.24-.37-.37-.55-.18-.28-.37-.55-.55-.82-.13-.19-.26-.37-.39-.56-.18-.25-.35-.5-.53-.74-.14-.18-.27-.36-.41-.54-.17-.23-.35-.46-.52-.68-.14-.17-.27-.34-.41-.51-.1-.13-.2-.26-.31-.39l-.17-.2c-.26-.32-.52-.62-.77-.92-.1-.11-.19-.23-.29-.34-.35-.4-.69-.79-1.03-1.16-.07-.07-.13-.14-.19-.21-.27-.3-.55-.58-.81-.86l-.33-.33c-.22-.22-.43-.44-.64-.65-.05-.05-.11-.12-.17-.17s-.11-.11-.17-.16c-.17-.16-.33-.32-.49-.47-.11-.11-.22-.21-.33-.31-.16-.15-.32-.29-.47-.43-.1-.09-.19-.18-.29-.26-.16-.15-.32-.28-.47-.42l-.22-.19c-.22-.19-.42-.36-.61-.53a24.4,24.4,0,0,1,.62-2.63q.21-.705.48-1.44a15.094,15.094,0,0,1,1.82-3.52,9.622,9.622,0,0,1,2.95-2.76h0l-7.05,4.1c-3.85,2.24-5.29,7.2-5.87,10.34.19.16.4.34.61.53A2.33,2.33,0,0,1,192.74,211.36Z" fill="#7dd0f9"/>
      <path id="Path_246" data-name="Path 246" d="M195.89,193.55c.09-.03.18-.05.27-.08q.285-.09.57-.15a2.213,2.213,0,0,1,.25-.05c.38-.08.76-.15,1.13-.19a.277.277,0,0,0,.09-.01c.36-.04.72-.06,1.08-.07.05,0,.11-.01.16-.01.36-.01.71,0,1.05.02.07,0,.14.01.2.01q.51.03.99.09c.05.01.09.01.14.02.31.04.62.09.91.15.03.01.06.01.08.02.3.06.59.12.86.19.05.01.1.03.16.04.26.07.51.13.74.2.04.01.08.03.13.04.23.07.45.14.65.21l7.05-4.1c-.2-.07-.42-.14-.65-.21-.04-.01-.08-.03-.13-.04-.23-.07-.48-.14-.74-.2-.05-.01-.1-.03-.16-.04-.27-.07-.56-.13-.86-.19a.249.249,0,0,0-.08-.01c-.29-.06-.59-.1-.91-.15-.05-.01-.09-.01-.14-.02q-.48-.06-.99-.09c-.07,0-.13-.01-.2-.01-.34-.02-.69-.03-1.05-.02a.861.861,0,0,0-.16.01c-.36.01-.71.03-1.08.07a.277.277,0,0,0-.09.01c-.37.04-.75.11-1.13.19-.04.01-.09.01-.13.02l-.12.03c-.19.04-.38.1-.57.15-.09.03-.18.05-.28.08q-.42.135-.84.3a9.133,9.133,0,0,0-1.17.58l-7.05,4.1a9.133,9.133,0,0,1,1.17-.58C195.33,193.74,195.61,193.64,195.89,193.55Z" fill="#406b89"/>
    </g>
    <g id="Group_160" data-name="Group 160">
      <path id="Path_247" data-name="Path 247" d="M398.72,222.52a9.79,9.79,0,0,1,4.44,7.69l-.78,275.06c-.01,2.83-2.01,3.97-4.47,2.55L37.23,299.58a9.8,9.8,0,0,1-4.45-7.7l.78-275.06c.01-2.82,2.01-3.97,4.48-2.54ZM284.97,358.27a62.409,62.409,0,0,0-1.23-14.16,91.809,91.809,0,0,0-5.86-18.9c-8.89-20.16-27.51-33.4-29.9-35.07l-34.29-19.85-.08,28.35,25.67,14.82c7.71,4.84,14.47,13.65,17.46,22.88,2.98,9.19,1.06,15.2.53,16.69l-8.41-4.87c-18.29-10.56-32.43-18.51-42.33-23.6-.45-.23-1.03-.53-1.71-.92a27.478,27.478,0,0,1-7.58-6.49c-7.99-9.73-9.51-23.64-9.89-29.82-.83-40.75-.95-70.44-.53-78.52a23.522,23.522,0,0,1,1.65-7.96,12.518,12.518,0,0,1,6.57-7c4.03-1.65,8.23-.59,10.3.12-.69-.8-8.48-9.61-17.84-15.01-4.94-2.85-10.32-4.76-15.32-4.04-8.3,1.2-11.63,8.6-11.81,8.99a25.7,25.7,0,0,0-2.14,11.45l1.13,81.04c.09,3.73.89,21.74,13.38,42.96,11.32,19.23,24.81,28.45,28.37,30.75l49,28.29c3.15,1.58,17.11,8.15,26.62.43,3.9-3.17,5.77-7.71,6.71-11.09a42.655,42.655,0,0,0,1.53-9.47m102.5-105.8.06-19.79a5.254,5.254,0,0,0-2.37-4.11L101.89,65.02c-1.32-.76-2.38-.15-2.39,1.36l-.06,19.79a5.254,5.254,0,0,0,2.37,4.11L385.07,253.82c1.33.77,2.4.16,2.4-1.35M211.28,202.02c-4.09-2.36-8.09-3.48-11.49-2.55-5.39,1.47-7.22,7.54-7.88,11.18a57.389,57.389,0,0,1,13.64,16.99,63.723,63.723,0,0,1,5.47,15.24,82.587,82.587,0,0,1,2.69,21.8Q230,273.9,246.29,283.12a97.87,97.87,0,0,0-1.28-21.46,109.156,109.156,0,0,0-9.59-31.24,73.12,73.12,0,0,0-4.82-8.92c-4.79-7.44-12.17-15.36-19.32-19.48M87.39,79.22l.06-19.79a5.254,5.254,0,0,0-2.37-4.11L49.4,34.71c-1.32-.76-2.38-.15-2.39,1.36l-.06,19.79a5.254,5.254,0,0,0,2.37,4.11L85,80.58c1.32.76,2.39.15,2.39-1.36" fill="#5db0ed"/>
    </g>
    <g id="Group_161" data-name="Group 161">
      <path id="Path_248" data-name="Path 248" d="M385.16,228.56a5.2,5.2,0,0,1,2.37,4.11l-.06,19.79c0,1.51-1.07,2.12-2.39,1.36L101.82,90.29a5.2,5.2,0,0,1-2.37-4.11l.06-19.79c0-1.51,1.07-2.12,2.39-1.36Z" fill="#fff"/>
    </g>
    <path id="Path_249" data-name="Path 249" d="M410.13,225.1c-.02-.11-.05-.22-.07-.34-.05-.23-.1-.47-.16-.7-.04-.13-.08-.26-.13-.39-.07-.22-.15-.43-.24-.65-.06-.13-.11-.26-.17-.4-.04-.09-.07-.18-.11-.26-.05-.1-.11-.19-.16-.29-.11-.2-.22-.39-.33-.59-.05-.08-.09-.16-.14-.24a2.692,2.692,0,0,0-.2-.27c-.1-.14-.19-.28-.3-.41l-.15-.21a3.443,3.443,0,0,0-.26-.28c-.11-.12-.22-.25-.33-.36-.05-.05-.09-.1-.14-.15-.08-.08-.17-.14-.25-.21-.17-.15-.34-.3-.52-.44-.06-.04-.11-.1-.17-.14a5.951,5.951,0,0,0-.53-.34L45.09,10.18a5,5,0,0,0-.62-.3c-.05-.02-.1-.04-.14-.06a3.593,3.593,0,0,0-.59-.18.06.06,0,0,1-.04-.01,3.191,3.191,0,0,0-.52-.06h-.13a2.734,2.734,0,0,0-.5.05h-.02c-.01,0-.02.01-.03.01a2.013,2.013,0,0,0-.59.23h0l-7.05,4.1a2.013,2.013,0,0,1,.59-.23c.02,0,.03-.01.05-.01a2.734,2.734,0,0,1,.5-.05h.13a3.191,3.191,0,0,1,.52.06.06.06,0,0,1,.04.01,3.593,3.593,0,0,1,.59.18c.05.02.1.04.14.06a5,5,0,0,1,.62.3L398.72,222.52a6.328,6.328,0,0,1,.7.49,5.271,5.271,0,0,1,.52.44c.13.12.26.23.39.36l.33.36c.14.16.28.32.41.49.1.13.2.27.3.41q.18.255.33.51c.12.19.23.39.33.59.1.18.19.36.28.55.06.13.12.26.17.4.09.22.17.43.24.65.04.13.09.26.13.39a5.882,5.882,0,0,1,.16.7c.02.11.05.23.07.34a6.985,6.985,0,0,1,.08,1.01l-.78,275.06a3.1,3.1,0,0,1-1.3,2.86l7.05-4.1a3.125,3.125,0,0,0,1.3-2.86l.78-275.06A5.8,5.8,0,0,0,410.13,225.1Z" fill="#7dd0f9"/>
  </g>
</svg>
