<svg xmlns="http://www.w3.org/2000/svg" width="407.622" height="455.275" viewBox="0 0 407.622 455.275">
  <g id="Layer_3" transform="translate(-1104.162 -12.725)" opacity="0.04">
    <path id="Path_483" data-name="Path 483" d="M1488.7,275c5.86,8.55,14.09,23.96,18.92,43.28a132.423,132.423,0,0,1,4.06,37.49,136.744,136.744,0,0,1-4.81,28.88,111.259,111.259,0,0,1-21.39,41.72c-30.38,36.82-75.17,40.95-85.28,41.63H1242.97c-11.44-.69-54.73-4.68-91.17-40.07-40.22-39.04-42.94-87.97-43.28-98.25l-4.34-224.13a85.214,85.214,0,0,1,6.74-35.36s11.17-27.37,37.75-44.06c46.4-29.12,103-1.98,106.41-.28A74.195,74.195,0,0,0,1222.1,42.1a77.492,77.492,0,0,0-21,30.1,78.759,78.759,0,0,0-5.2,24.86c-1.25,23.17-.6,105.77,2.41,218.06,1.25,16.64,6.25,52.97,31.93,67.23,12.04,6.68,24.18,5.99,29.85,5.69,36.5-2.02,90.89-2.51,162.82-2.32,1.7-5.02,7.79-24.88-1.83-45.69-9.68-20.91-31.45-34.61-56.17-35.69h-82.36V225.18l110.02.17C1400.26,226.15,1460.04,233.09,1488.7,275Z" fill="#324168"/>
    <path id="Path_484" data-name="Path 484" d="M1282.54,209.49q52.275-.51,104.56-1.03a213.971,213.971,0,0,0-4.29-57.78c-3.52-16.43-9.79-44.12-31.02-71.67-5.05-6.55-8.93-11.59-15.52-17.11-24.28-20.4-69.07-33.88-98.94-11.77-17.24,12.77-23.04,32.62-25.14,43.84,9.3,2.15,28.66,8.05,43.86,25.4,9.75,11.14,13.65,22.27,17.65,33.69A160.989,160.989,0,0,1,1282.54,209.49Z" fill="#eda627"/>
  </g>
</svg>
